<?xml version="1.0" encoding="UTF-8" standalone="no"?>
<svg
   xmlns:dc="http://purl.org/dc/elements/1.1/"
   xmlns:cc="http://creativecommons.org/ns#"
   xmlns:rdf="http://www.w3.org/1999/02/22-rdf-syntax-ns#"
   xmlns:svg="http://www.w3.org/2000/svg"
   xmlns="http://www.w3.org/2000/svg"
   xmlns:sodipodi="http://sodipodi.sourceforge.net/DTD/sodipodi-0.dtd"
   xmlns:inkscape="http://www.inkscape.org/namespaces/inkscape"
   width="215.32333mm"
   height="237.26624mm"
   viewBox="0 0 215.32333 237.26624"
   version="1.1"
   id="svg8"
   inkscape:version="1.0 (4035a4fb49, 2020-05-01)"
   sodipodi:docname="Connected.svg">
  <defs
     id="defs2" />
  <sodipodi:namedview
     fit-margin-bottom="0"
     fit-margin-right="0"
     fit-margin-left="0"
     fit-margin-top="0"
     inkscape:snap-global="true"
     id="base"
     pagecolor="#ffffff"
     bordercolor="#666666"
     borderopacity="1.0"
     inkscape:pageopacity="0.0"
     inkscape:pageshadow="2"
     inkscape:zoom="0.175"
     inkscape:cx="844.55927"
     inkscape:cy="588.22591"
     inkscape:document-units="mm"
     inkscape:current-layer="layer1"
     inkscape:document-rotation="0"
     showgrid="false"
     inkscape:window-width="1600"
     inkscape:window-height="837"
     inkscape:window-x="-8"
     inkscape:window-y="-8"
     inkscape:window-maximized="1" />
  <metadata
     id="metadata5">
    <rdf:RDF>
      <cc:Work
         rdf:about="">
        <dc:format>image/svg+xml</dc:format>
        <dc:type
           rdf:resource="http://purl.org/dc/dcmitype/StillImage" />
        <dc:title></dc:title>
      </cc:Work>
    </rdf:RDF>
  </metadata>
  <g
     transform="translate(1.8646678,-8.9100209)"
     inkscape:label="Ebene 1"
     inkscape:groupmode="layer"
     id="layer1">
    <g
       transform="translate(26.421998)"
       id="g1112">
      <path
         id="path873-6-3"
         style="fill:#00ff00;fill-opacity:1;stroke:#000000;stroke-width:0.352777;stroke-opacity:1"
         d="m -24.694975,140.87135 -0.64957,0.64958 -0.64906,0.64957 v 6.49418 6.49417 h 0.926039 0.92604 v -6.21771 -6.2177 h 1.19063 1.19062 v 4.23333 4.23333 h 0.926041 0.92604 v -4.24832 -4.24883 l 1.12448,0.0816 1.124479,0.0811 0.0729,4.16719 0.0729,4.16718 h 0.91932 0.91933 v -4.23333 -4.23333 h 1.05833 1.058331 v 4.23333 4.23333 h 0.926049 0.92604 v -4.23333 -4.23333 h 1.19062 1.1906305 v 4.23333 4.23333 h 0.926041 0.92604 v -4.23333 -4.23333 h 1.190629 1.190621 v 6.2177 6.21771 h 0.926039 l 0.926041,5.3e-4 v -6.23056 c 0,-6.71951 -0.14664,-7.55732 -1.37872,-7.88737 -0.333251,-0.0892 -4.986981,-0.16388 -10.3414915,-0.16588 z m 15.4119705,16.66875 -0.148821,0.7276 c -0.0818,0.40018 -0.50854,2.89264 -0.9482595,5.53817 -0.899731,5.41306 -0.938571,5.5564 -1.60456,5.91282 -0.635261,0.33995 -4.645461,0.3309 -5.285981,-0.0119 -0.27635,-0.14788 -0.62711,-0.71343 -0.77928,-1.25676 -0.229569,-0.81967 -1.858289,-10.24347 -1.858289,-10.7518 0,-0.20795 -6.042561,-0.1974 -6.823871,0.0119 -1.31406,0.35202 -1.37821,0.89091 -1.37821,11.54245 0,6.00161 0.11338,10.49923 0.28835,11.44582 0.35608,1.92615 1.11993,3.45884 3.128501,6.27662 1.738619,2.43906 2.215739,3.44167 2.662879,5.59552 0.31375,1.51134 0.95783,2.27583 1.91668,2.27583 0.424491,0 0.470261,0.30887 0.470261,3.175 v 3.175 h 5.02708 5.0270795 v -3.14193 -3.14192 l 0.782391,-0.15607 c 0.824169,-0.16483 1.598859,-1.26749 1.598859,-2.27531 0,-1.0825 1.03422,-3.21295 2.764181,-5.69423 1.92305,-2.75822 2.69959,-4.29892 3.042191,-6.03477 0.347898,-1.76276 0.334648,-21.2122 -0.015,-21.97954 -0.45731,-1.00369 -1.333679,-1.23248 -4.724769,-1.23248 z M 33.261696,187.684 c -1.993651,-0.0126 -5.354172,0.7658 -7.932322,2.00608 -2.6153,1.25814 -6.036548,4.65957 -7.396459,7.35355 -1.374611,2.72313 -2.045861,5.09237 -2.70941,9.56221 -1.076851,7.25437 -3.704701,11.50767 -8.6051415,13.92938 -1.355338,0.66978 -2.209519,0.80935 -4.986789,0.81235 -2.98663,0.003 -3.554399,-0.10314 -5.21621,-0.9772 -2.373419,-1.24835 -4.327789,-3.01448 -5.66426,-5.11958 -1.1355395,-1.78863 -2.1724805,-4.88376 -2.1724805,-6.48384 v -0.99426 h -2.998779 c -2.876301,0 -2.998061,0.0324 -2.992061,0.79375 0.0136,1.76691 1.11124,5.86234 2.1239,7.92458 2.665151,5.42746 7.6117715,9.3098 13.5681615,10.64897 h 5.29e-4 c 2.12663097,0.47813 4.669171,0.43291 7.32667,-0.13023 7.3965615,-1.56736 13.5006815,-8.28451 14.9164195,-16.41502 1.247672,-7.16546 1.524021,-8.37976 2.26446,-9.95391 1.8078,-3.84332 5.080712,-6.25377 9.54773,-7.03213 1.25444,-0.21858 2.397361,-0.57397 2.5399,-0.78962 0.31396,-0.47499 0.3546,-3.81806 0.0558,-4.59661 -0.13944,-0.36334 -0.763489,-0.53274 -1.66969,-0.53847 z m -52.349781,14.65078 v 1.32292 h 8.88266 v -1.32292 z m 1.181319,2.64584 v 1.41696 h 6.52002 v -1.41696 z" />
      <path
         d="m 183.44497,240.8316 0.64957,-0.64957 0.64906,-0.64957 v -6.49419 -6.49417 h -0.92604 -0.92604 v 6.21771 6.21771 h -1.19063 -1.19062 v -4.23334 -4.23333 h -0.92604 -0.92604 v 4.24832 4.24883 l -1.12448,-0.0816 -1.12448,-0.0811 -0.0729,-4.16719 -0.0729,-4.16718 h -0.91932 -0.91933 v 4.23333 4.23333 h -1.05833 -1.05833 v -4.23333 -4.23333 h -0.92605 -0.92604 v 4.23333 4.23334 h -1.19062 -1.19063 v -4.23334 -4.23333 h -0.92604 -0.92604 v 4.23333 4.23334 h -1.19063 -1.19062 v -6.21771 -6.21771 h -0.92604 l -0.92604,-5.3e-4 v 6.23055 c 0,6.71952 0.14664,7.55733 1.37872,7.88738 0.33325,0.0892 4.98698,0.16388 10.34149,0.16588 z m -15.41197,-16.66875 0.14882,-0.7276 c 0.0818,-0.40018 0.50854,-2.89264 0.94826,-5.53817 0.89973,-5.41306 0.93857,-5.5564 1.60456,-5.91282 0.63526,-0.33995 4.64546,-0.3309 5.28598,0.0119 0.27635,0.14789 0.62711,0.71344 0.77928,1.25677 0.22957,0.81967 1.85829,10.24347 1.85829,10.7518 0,0.20795 6.04256,0.1974 6.82387,-0.0119 1.31406,-0.35201 1.37821,-0.8909 1.37821,-11.54244 0,-6.00161 -0.11338,-10.49923 -0.28835,-11.44582 -0.35608,-1.92615 -1.11993,-3.45884 -3.1285,-6.27662 -1.73862,-2.43906 -2.21574,-3.44167 -2.66288,-5.59552 -0.31375,-1.51134 -0.95783,-2.27583 -1.91668,-2.27583 -0.42449,0 -0.47026,-0.30887 -0.47026,-3.175 v -3.175 h -5.02708 -5.02708 v 3.14193 3.14192 l -0.78239,0.15607 c -0.82417,0.16483 -1.59886,1.26749 -1.59886,2.27531 0,1.0825 -1.03422,3.21295 -2.76418,5.69423 -1.92305,2.75822 -2.69959,4.29892 -3.04219,6.03477 -0.3479,1.76276 -0.33464,21.2122 0.015,21.97954 0.45731,1.00369 1.33368,1.23248 4.72477,1.23248 z m -42.54469,-30.1439 c 1.99364,0.0126 5.35416,-0.7658 7.93231,-2.00608 2.61531,-1.25814 6.03655,-4.65957 7.39646,-7.35355 1.37461,-2.72313 2.04586,-5.09237 2.70941,-9.56221 1.07685,-7.25437 3.7047,-11.50767 8.60515,-13.92938 1.35533,-0.66978 2.20951,-0.80935 4.98679,-0.81235 2.98662,-0.003 3.55439,0.10314 5.2162,0.9772 2.37342,1.24835 4.32779,3.01448 5.66426,5.11958 1.13554,1.78863 2.17248,4.88376 2.17248,6.48384 v 0.99426 h 2.99878 c 2.8763,0 2.99806,-0.0324 2.99206,-0.79375 -0.0136,-1.76691 -1.11124,-5.86234 -2.1239,-7.92458 -2.66515,-5.42746 -7.61177,-9.3098 -13.56816,-10.64897 h -5.3e-4 c -2.12663,-0.47813 -4.66917,-0.43291 -7.32667,0.13023 -7.39656,1.56736 -13.50068,8.28451 -14.91642,16.41502 -1.24767,7.16546 -1.52402,8.37976 -2.26446,9.95391 -1.80779,3.84332 -5.08071,6.25377 -9.54773,7.03213 -1.25444,0.21858 -2.39736,0.57397 -2.53989,0.78962 -0.31396,0.47499 -0.3546,3.81806 -0.0558,4.59661 0.13944,0.36334 0.76348,0.53274 1.66968,0.53847 z m 52.34977,-14.65078 v -1.32292 h -8.88266 v 1.32292 z m -1.18132,-2.64584 v -1.41696 h -6.52002 v 1.41696 z"
         style="fill:#00ff00;fill-opacity:1;stroke:#000000;stroke-width:0.352777;stroke-opacity:1"
         id="path873-5" />
      <circle
         r="48.643055"
         cy="197.5332"
         cx="78.882172"
         id="path899-5"
         style="fill:#000000;fill-opacity:1;stroke-width:2.64583" />
      <circle
         style="fill:#00ff00;fill-opacity:1;stroke-width:2.22437"
         id="path899-0-4"
         cx="78.882172"
         cy="197.5332"
         r="40.894547" />
      <path
         id="rect1004"
         style="fill:#ffffff;fill-opacity:1;stroke:#000000;stroke-width:1.19692;stroke-opacity:1"
         d="m 99.743028,175.30465 -28.726186,28.7262 -12.995287,-12.99528 -7.86558,7.86557 12.995287,12.99528 7.86558,7.86534 7.865327,-7.86534 28.726201,-28.72619 z" />
    </g>
    <g
       id="g1105">
      <path
         id="path873"
         style="fill:#ff0000;fill-opacity:1;stroke:#000000;stroke-width:0.352777;stroke-opacity:1"
         d="m 209.86697,109.04669 0.64957,-0.64958 0.64906,-0.64957 v -6.49418 -6.494171 h -0.92604 -0.92604 v 6.217711 6.2177 h -1.19063 -1.19062 v -4.23333 -4.233331 h -0.92604 -0.92604 v 4.248321 4.24883 l -1.12448,-0.0816 -1.12448,-0.0811 -0.0729,-4.16719 -0.0729,-4.167181 h -0.91932 -0.91933 v 4.233331 4.23333 h -1.05833 -1.05833 v -4.23333 -4.233331 h -0.92605 -0.92604 v 4.233331 4.23333 h -1.19062 -1.19063 v -4.23333 -4.233331 h -0.92604 -0.92604 v 4.233331 4.23333 h -1.19063 -1.19062 v -6.2177 -6.217711 h -0.92604 l -0.92604,-5.2e-4 v 6.230551 c 0,6.71951 0.14664,7.55732 1.37872,7.88737 0.33325,0.0892 4.98698,0.16388 10.34149,0.16588 z M 194.455,92.377939 l 0.14882,-0.7276 c 0.0818,-0.40018 0.50854,-2.89264 0.94826,-5.53817 0.89973,-5.41306 0.93857,-5.5564 1.60456,-5.91282 0.63526,-0.33995 4.64546,-0.3309 5.28598,0.0119 0.27635,0.14789 0.62711,0.71344 0.77928,1.25677 0.22957,0.81967 1.85829,10.24347 1.85829,10.7518 0,0.20795 6.04256,0.1974 6.82387,-0.0119 1.31406,-0.35201 1.37821,-0.8909 1.37821,-11.54244 0,-6.00161 -0.11338,-10.49923 -0.28835,-11.44582 -0.35608,-1.92615 -1.11993,-3.45884 -3.1285,-6.27662 -1.73862,-2.43906 -2.21574,-3.44167 -2.66288,-5.59552 -0.31375,-1.51134 -0.95783,-2.27583 -1.91668,-2.27583 -0.42449,0 -0.47026,-0.30887 -0.47026,-3.175 v -3.175 h -5.02708 -5.02708 v 3.14193 3.14192 l -0.78239,0.15607 c -0.82417,0.16483 -1.59886,1.26749 -1.59886,2.27531 0,1.0825 -1.03422,3.21295 -2.76418,5.69423 -1.92305,2.75822 -2.69959,4.29892 -3.04219,6.03477 -0.3479,1.76276 -0.33464,21.2122 0.015,21.97954 0.45731,1.00369 1.33368,1.23248 4.72477,1.23248 z m -42.54469,-30.1439 c 1.99364,0.0126 5.35416,-0.7658 7.93231,-2.00608 2.61531,-1.25814 6.03655,-4.65957 7.39646,-7.35355 1.37461,-2.72313 2.04586,-5.09237 2.70941,-9.56221 1.07685,-7.25437 3.7047,-11.50767 8.60515,-13.92938 1.35533,-0.66978 2.20951,-0.80935 4.98679,-0.81235 2.98662,-0.003 3.55439,0.10314 5.2162,0.9772 2.37342,1.24835 4.32779,3.01448 5.66426,5.11958 1.13554,1.78863 2.17248,4.88376 2.17248,6.48384 v 0.99426 h 2.99878 c 2.8763,0 2.99806,-0.0324 2.99206,-0.79375 -0.0136,-1.76691 -1.11124,-5.86234 -2.1239,-7.92458 -2.66515,-5.42746 -7.61177,-9.3098 -13.56816,-10.64897 h -5.2e-4 c -2.12663,-0.47813 -4.66917,-0.43291 -7.32667,0.13023 -7.39656,1.56736 -13.50068,8.28451 -14.91642,16.41502 -1.24767,7.16546 -1.52402,8.37976 -2.26446,9.95391 -1.80779,3.84332 -5.08071,6.25377 -9.54773,7.03213 -1.25444,0.21858 -2.39736,0.57397 -2.53989,0.78962 -0.31396,0.47499 -0.3546,3.81806 -0.0558,4.59661 0.13944,0.36334 0.76348,0.53274 1.66968,0.53847 z m 52.34977,-14.65078 v -1.32292 h -8.88266 v 1.32292 z m -1.18132,-2.64584 v -1.41696 h -6.52002 v 1.41696 z" />
      <path
         d="m 1.7270207,9.0864405 -0.64957,0.64958 -0.64905998,0.6495705 v 6.49418 6.494168 h 0.92603998 0.92604 v -6.217708 -6.2177 h 1.19063 1.19062 v 4.23333 4.23333 h 0.92604 0.92604 v -4.24832 -4.24883 l 1.12448,0.0816 1.12448,0.0811 0.0729,4.16719 0.0729,4.16718 h 0.91932 0.9193303 v -4.23333 -4.23333 h 1.05833 1.05833 v 4.23333 4.23333 h 0.92605 0.92604 v -4.23333 -4.23333 h 1.19062 1.19063 v 4.23333 4.23333 h 0.92604 0.92604 v -4.23333 -4.23333 h 1.19063 1.19062 v 6.2177 6.217708 h 0.92604 l 0.92604,5.3e-4 v -6.230558 c 0,-6.71951 -0.14664,-7.5573205 -1.37872,-7.8873705 -0.33325,-0.0892 -4.98698,-0.16388 -10.34149,-0.16588 z m 15.4119703,16.6687485 -0.14882,0.7276 c -0.0818,0.40018 -0.50854,2.89264 -0.94826,5.53817 -0.89973,5.41306 -0.93857,5.5564 -1.60456,5.91282 -0.63526,0.33995 -4.6454603,0.3309 -5.2859803,-0.0119 -0.27635,-0.14788 -0.62711,-0.71343 -0.77928,-1.25676 -0.22957,-0.81967 -1.85829,-10.24347 -1.85829,-10.7518 0,-0.20795 -6.04255998,-0.1974 -6.82386998,0.0119 -1.31406002,0.35201 -1.37821002,0.8909 -1.37821002,11.54244 0,6.00161 0.11338,10.49923 0.28835,11.44582 0.35608,1.92615 1.11993002,3.45884 3.1285,6.27662 1.73862,2.43906 2.21574,3.44167 2.66288,5.59552 0.31375,1.51134 0.95783,2.27583 1.91668,2.27583 0.42449,0 0.47026,0.30887 0.47026,3.175 v 3.175 h 5.0270803 5.02708 v -3.14193 -3.14192 l 0.78239,-0.15607 c 0.82417,-0.16483 1.59886,-1.26749 1.59886,-2.27531 0,-1.0825 1.03422,-3.21295 2.76418,-5.69423 1.92305,-2.75822 2.69959,-4.29892 3.04219,-6.03477 0.3479,-1.76276 0.33465,-21.2122 -0.015,-21.97954 -0.45731,-1.00369 -1.33368,-1.23248 -4.72477,-1.23248 z m 42.5447,30.1439 c -1.99365,-0.0126 -5.35417,0.7658 -7.93232,2.00608 -2.6153,1.25814 -6.03655,4.65957 -7.39646,7.35355 -1.37461,2.72313 -2.04586,5.09237 -2.70941,9.56221 -1.07685,7.25437 -3.7047,11.50767 -8.60514,13.92938 -1.35534,0.66978 -2.20952,0.80935 -4.98679,0.81235 -2.98663,0.003 -3.5544,-0.10314 -5.21621,-0.9772 -2.37342,-1.24835 -4.32779,-3.01448 -5.66426,-5.11958 -1.13554,-1.78863 -2.17248,-4.88376 -2.17248,-6.48384 v -0.99426 h -2.99878 c -2.8763003,0 -2.9980603,0.0324 -2.9920603,0.79375 0.0136,1.76691 1.1112403,5.86234 2.1239003,7.92458 2.66515,5.42746 7.61177,9.3098 13.56816,10.64897 h 5.3e-4 c 2.12663,0.47813 4.66917,0.43291 7.32667,-0.13023 7.39656,-1.56736 13.50068,-8.28451 14.91642,-16.41502 1.24767,-7.16546 1.52402,-8.37976 2.26446,-9.95391 1.8078,-3.84332 5.08071,-6.25377 9.54773,-7.03213 1.25444,-0.21858 2.39736,-0.57397 2.5399,-0.78962 0.31396,-0.47499 0.3546,-3.81806 0.0558,-4.59661 -0.13944,-0.36334 -0.76349,-0.53274 -1.66969,-0.53847 z M 7.3339107,70.549869 v 1.32292 h 8.8826603 v -1.32292 z m 1.18132,2.64584 v 1.41696 h 6.5200203 v -1.41696 z"
         style="fill:#ff0000;fill-opacity:1;stroke:#000000;stroke-width:0.352777;stroke-opacity:1"
         id="path873-6" />
      <circle
         style="fill:#000000;fill-opacity:1;stroke-width:2.64583"
         id="path899"
         cx="105.30416"
         cy="65.748299"
         r="48.643055" />
      <circle
         r="40.894547"
         cy="65.748299"
         cx="105.30416"
         id="path899-0"
         style="fill:#ff0000;fill-opacity:1;stroke-width:2.22437" />
      <path
         id="rect936"
         style="fill:#ffffff;fill-opacity:1;stroke:#000000;stroke-width:1.70876;stroke-opacity:1"
         d="m 81.869649,49.637102 16.111193,16.111196 -16.111195,16.111197 7.323317,7.323315 16.111206,-16.111198 16.11119,16.111196 7.32332,-7.323313 -16.1112,-16.111196 16.1112,-16.111197 -7.32332,-7.323314 -16.11119,16.111196 -16.111206,-16.111196 z" />
    </g>
  </g>
</svg>
